<svg width="17" height="16" viewBox="0 0 17 16" fill="none" xmlns="http://www.w3.org/2000/svg">
<path d="M0.738403 3.5C0.738403 3.22386 0.957991 3 1.22887 3H15.9428C16.2136 3 16.4332 3.22386 16.4332 3.5V5.5C16.4332 5.77614 16.2136 6 15.9428 6H1.22887C0.957991 6 0.738403 5.77614 0.738403 5.5V3.5Z" fill="#FFFCFC"/>
<path d="M0.738403 8.5C0.738403 8.22386 0.957991 8 1.22887 8H15.9428C16.2136 8 16.4332 8.22386 16.4332 8.5V9.5C16.4332 9.77614 16.2136 10 15.9428 10H1.22887C0.957991 10 0.738403 9.77614 0.738403 9.5V8.5Z" fill="#FFFCFC"/>
<path d="M0.738403 12.5C0.738403 12.2239 0.957991 12 1.22887 12H15.9428C16.2136 12 16.4332 12.2239 16.4332 12.5C16.4332 12.7761 16.2136 13 15.9428 13H1.22887C0.957991 13 0.738403 12.7761 0.738403 12.5Z" fill="#FFFCFC"/>
</svg>
