<svg width="17" height="16" viewBox="0 0 17 16" fill="none" xmlns="http://www.w3.org/2000/svg">
<path d="M0.738281 3.5C0.738281 3.22386 0.957869 3 1.22874 3H15.9426C16.2135 3 16.4331 3.22386 16.4331 3.5V5.5C16.4331 5.77614 16.2135 6 15.9426 6H1.22874C0.957869 6 0.738281 5.77614 0.738281 5.5V3.5Z" fill="#FFFCFC"/>
<path d="M0.738281 8.5C0.738281 8.22386 0.957869 8 1.22874 8H15.9426C16.2135 8 16.4331 8.22386 16.4331 8.5V9.5C16.4331 9.77614 16.2135 10 15.9426 10H1.22874C0.957869 10 0.738281 9.77614 0.738281 9.5V8.5Z" fill="#FFFCFC"/>
<path d="M0.738281 12.5C0.738281 12.2239 0.957869 12 1.22874 12H15.9426C16.2135 12 16.4331 12.2239 16.4331 12.5C16.4331 12.7761 16.2135 13 15.9426 13H1.22874C0.957869 13 0.738281 12.7761 0.738281 12.5Z" fill="#FFFCFC"/>
</svg>
