<svg width="16" height="16" viewBox="0 0 16 16" fill="none" xmlns="http://www.w3.org/2000/svg">
<path d="M7.60962 9.35354L3.88907 13.1464C3.5801 13.4614 3.79893 14 4.23588 14H11.677C12.1139 14 12.3328 13.4614 12.0238 13.1464L8.30324 9.35354C8.1117 9.15828 7.80116 9.15828 7.60962 9.35354Z" fill="white"/>
<path d="M11.3055 11H14.3324C14.6033 11 14.8229 10.7761 14.8229 10.5V3.5C14.8229 3.22386 14.6033 3 14.3324 3H1.5804C1.30952 3 1.08994 3.22386 1.08994 3.5V10.5C1.08994 10.7761 1.30952 11 1.5804 11H4.60732L3.62639 12H1.5804C0.767772 12 0.109009 11.3284 0.109009 10.5V3.5C0.109009 2.67157 0.767772 2 1.5804 2H14.3324C15.1451 2 15.8038 2.67157 15.8038 3.5V10.5C15.8038 11.3284 15.1451 12 14.3324 12H12.2865L11.3055 11Z" fill="white"/>
</svg>
