<svg width="16" height="16" viewBox="0 0 16 16" fill="none" xmlns="http://www.w3.org/2000/svg">
<path d="M7.6095 9.35354L3.88895 13.1464C3.57998 13.4614 3.7988 14 4.23576 14H11.6769C12.1138 14 12.3326 13.4614 12.0237 13.1464L8.30312 9.35354C8.11158 9.15828 7.80104 9.15828 7.6095 9.35354Z" fill="white"/>
<path d="M11.3054 11H14.3323C14.6032 11 14.8228 10.7761 14.8228 10.5V3.5C14.8228 3.22386 14.6032 3 14.3323 3H1.58028C1.3094 3 1.08981 3.22386 1.08981 3.5V10.5C1.08981 10.7761 1.3094 11 1.58028 11H4.60719L3.62627 12H1.58028C0.76765 12 0.108887 11.3284 0.108887 10.5V3.5C0.108887 2.67157 0.76765 2 1.58028 2H14.3323C15.1449 2 15.8037 2.67157 15.8037 3.5V10.5C15.8037 11.3284 15.1449 12 14.3323 12H12.2863L11.3054 11Z" fill="white"/>
</svg>
