<svg width="22" height="22" viewBox="0 0 22 22" fill="none" xmlns="http://www.w3.org/2000/svg">
<path d="M2.75 0C1.23122 0 0 1.64162 0 3.66667V18.3333C0 20.3584 1.23122 22 2.75 22H19.25C20.7688 22 22 20.3584 22 18.3333V3.66667C22 1.64162 20.7688 0 19.25 0H2.75Z" fill="#9999CC"/>
<path d="M6.59995 3.29998C9.03 3.29998 11 5.23053 11 7.61198C11 5.23053 12.9699 3.29998 15.4 3.29998C17.83 3.29998 19.8 5.23053 19.8 7.61198C19.8 11.2017 16.2423 12.4671 11.4306 18.1806C11.2064 18.4468 10.7935 18.4468 10.5693 18.1806C5.75758 12.4671 2.19995 11.2017 2.19995 7.61198C2.19995 5.23053 4.1699 3.29998 6.59995 3.29998Z" fill="#FF00CC"/>
</svg>
