<svg width="22" height="22" viewBox="0 0 22 22" fill="none" xmlns="http://www.w3.org/2000/svg">
<path fill-rule="evenodd" clip-rule="evenodd" d="M3.66667 0H18.3333C20.3584 0 22 1.23122 22 2.75V19.25C22 20.7688 20.3584 22 18.3333 22H3.66667C1.64162 22 0 20.7688 0 19.25V2.75C0 1.23122 1.64162 0 3.66667 0Z" fill="#99CC99"/>
<path fill-rule="evenodd" clip-rule="evenodd" d="M6 0H16V18.6667C16 19.147 15.8385 19.5903 15.5772 19.8269C15.316 20.0636 14.9954 20.0571 14.7379 19.81L11 16.2216L7.26208 19.81C7.00464 20.0571 6.68401 20.0636 6.42275 19.8269C6.16149 19.5903 6 19.147 6 18.6667V0Z" fill="#66FF99"/>
</svg>
