<svg width="508" height="84" viewBox="0 0 508 84" fill="none" xmlns="http://www.w3.org/2000/svg">
<path d="M52.9152 0H8.81921C3.94849 0 0 3.94849 0 8.81921V74.5823C0 78.2841 4.28605 80.3381 7.17174 78.0196L30.8672 58.9785L54.5627 78.0196C57.4483 80.3381 61.7345 78.2841 61.7345 74.5823V8.81921C61.7345 3.94849 57.7861 0 52.9152 0Z" fill="#1ED760"/>
<path d="M236.82 66.6395V16.3161C236.82 14.317 238.249 12.6039 240.216 12.2463L279.884 5.03395C281.153 4.80313 282.322 5.77846 282.322 7.06891V58.3663M236.82 66.6395C236.82 73.4934 231.263 79.0493 224.41 79.0493C217.556 79.0493 212 73.4934 212 66.6395C212 59.7856 217.556 54.2297 224.41 54.2297C231.263 54.2297 236.82 59.7856 236.82 66.6395ZM282.322 58.3663C282.322 65.2202 276.766 70.7761 269.912 70.7761C263.058 70.7761 257.502 65.2202 257.502 58.3663C257.502 51.5124 263.058 45.9565 269.912 45.9565C276.766 45.9565 282.322 51.5124 282.322 58.3663Z" stroke="#B3B3B3" stroke-width="8.27318" stroke-linecap="square" stroke-linejoin="round"/>
<path d="M457.82 66.6395V16.3161C457.82 14.317 459.249 12.6039 461.216 12.2463L500.884 5.03395C502.153 4.80313 503.322 5.77846 503.322 7.06891V58.3663M457.82 66.6395C457.82 73.4934 452.263 79.0493 445.41 79.0493C438.556 79.0493 433 73.4934 433 66.6395C433 59.7856 438.556 54.2297 445.41 54.2297C452.263 54.2297 457.82 59.7856 457.82 66.6395ZM503.322 58.3663C503.322 65.2202 497.766 70.7761 490.912 70.7761C484.058 70.7761 478.502 65.2202 478.502 58.3663C478.502 51.5124 484.058 45.9565 490.912 45.9565C497.766 45.9565 503.322 51.5124 503.322 58.3663Z" stroke="#AFAFAF" stroke-width="8.27318" stroke-linecap="square" stroke-linejoin="round"/>
</svg>
