<svg width="17" height="16" viewBox="0 0 17 16" fill="none" xmlns="http://www.w3.org/2000/svg">
<path d="M8.47961 2.74805L7.77653 2.01133C6.12431 0.280067 3.09839 0.877695 2.00585 3.05284C1.49202 4.07583 1.37648 5.55246 2.3138 7.43758C3.21653 9.25313 5.09314 11.4265 8.47962 13.7946C11.8661 11.4265 13.7427 9.25313 14.6454 7.43758C15.5827 5.55246 15.4672 4.07583 14.9534 3.05284C13.8608 0.877695 10.8349 0.280067 9.18269 2.01133L8.47961 2.74805ZM8.47961 15C-6.56106 4.86841 3.84842 -3.04087 8.30728 1.14308C8.36577 1.19797 8.42324 1.25493 8.47961 1.314C8.53598 1.25494 8.59345 1.19797 8.65194 1.14309C13.1108 -3.04088 23.5203 4.8684 8.47961 15Z" fill="white"/>
</svg>
