<svg width="17" height="16" viewBox="0 0 17 16" fill="none" xmlns="http://www.w3.org/2000/svg">
<path d="M8.47957 2.74805L7.77649 2.01133C6.12427 0.280067 3.09835 0.877695 2.0058 3.05284C1.49197 4.07583 1.37643 5.55246 2.31375 7.43758C3.21648 9.25313 5.09309 11.4265 8.47957 13.7946C11.8661 11.4265 13.7427 9.25313 14.6454 7.43758C15.5827 5.55246 15.4672 4.07583 14.9533 3.05284C13.8608 0.877695 10.8349 0.280067 9.18265 2.01133L8.47957 2.74805ZM8.47957 15C-6.5611 4.86841 3.84838 -3.04087 8.30724 1.14308C8.36573 1.19797 8.4232 1.25493 8.47957 1.314C8.53594 1.25494 8.5934 1.19797 8.65189 1.14309C13.1107 -3.04088 23.5203 4.8684 8.47957 15Z" fill="white"/>
</svg>
