<svg width="17" height="16" viewBox="0 0 17 16" fill="none" xmlns="http://www.w3.org/2000/svg">
<path d="M8.47949 2.74805L7.77641 2.01133C6.12419 0.280067 3.09827 0.877695 2.00573 3.05284C1.4919 4.07583 1.37636 5.55246 2.31367 7.43758C3.2164 9.25313 5.09301 11.4265 8.47949 13.7946C11.866 11.4265 13.7426 9.25313 14.6453 7.43758C15.5826 5.55246 15.4671 4.07583 14.9533 3.05284C13.8607 0.877695 10.8348 0.280067 9.18257 2.01133L8.47949 2.74805ZM8.47949 15C-6.56118 4.86841 3.8483 -3.04087 8.30716 1.14308C8.36565 1.19797 8.42312 1.25493 8.47949 1.314C8.53586 1.25494 8.59333 1.19797 8.65182 1.14309C13.1107 -3.04088 23.5202 4.8684 8.47949 15Z" fill="white"/>
</svg>
