<svg width="20" height="20" viewBox="0 0 20 20" fill="none" xmlns="http://www.w3.org/2000/svg">
<path d="M15.625 3.75C15.9702 3.75 16.25 4.02982 16.25 4.375C16.25 4.72018 15.9702 5 15.625 5H9.375C9.02982 5 8.75 4.72018 8.75 4.375C8.75 4.02982 9.02982 3.75 9.375 3.75H15.625Z" fill="white"/>
<path d="M15.625 7.5C15.9702 7.5 16.25 7.77982 16.25 8.125C16.25 8.47018 15.9702 8.75 15.625 8.75H9.375C9.02982 8.75 8.75 8.47018 8.75 8.125C8.75 7.77982 9.02982 7.5 9.375 7.5H15.625Z" fill="white"/>
<path d="M16.25 11.875C16.25 11.5298 15.9702 11.25 15.625 11.25H9.375C9.02982 11.25 8.75 11.5298 8.75 11.875C8.75 12.2202 9.02982 12.5 9.375 12.5H15.625C15.9702 12.5 16.25 12.2202 16.25 11.875Z" fill="white"/>
<path d="M15.625 15C15.9702 15 16.25 15.2798 16.25 15.625C16.25 15.9702 15.9702 16.25 15.625 16.25H9.375C9.02982 16.25 8.75 15.9702 8.75 15.625C8.75 15.2798 9.02982 15 9.375 15H15.625Z" fill="white"/>
<path d="M20 2.5C20 1.11929 18.8807 0 17.5 0H2.5C1.11929 0 0 1.11929 0 2.5V17.5C0 18.8807 1.11929 20 2.5 20H17.5C18.8807 20 20 18.8807 20 17.5V2.5ZM5 1.25V18.75H2.5C1.80964 18.75 1.25 18.1904 1.25 17.5V2.5C1.25 1.80964 1.80964 1.25 2.5 1.25H5ZM6.25 1.25H17.5C18.1904 1.25 18.75 1.80964 18.75 2.5V17.5C18.75 18.1904 18.1904 18.75 17.5 18.75H6.25V1.25Z" fill="white"/>
</svg>
