<svg width="22" height="22" viewBox="0 0 22 22" fill="none" xmlns="http://www.w3.org/2000/svg">
<path d="M11.9167 8.25C11.9167 7.8703 11.5063 7.5625 11 7.5625C10.4937 7.5625 10.0833 7.8703 10.0833 8.25V10.3125H7.33333C6.82707 10.3125 6.41667 10.6203 6.41667 11C6.41667 11.3797 6.82707 11.6875 7.33333 11.6875H10.0833V13.75C10.0833 14.1297 10.4937 14.4375 11 14.4375C11.5063 14.4375 11.9167 14.1297 11.9167 13.75V11.6875H14.6667C15.1729 11.6875 15.5833 11.3797 15.5833 11C15.5833 10.6203 15.1729 10.3125 14.6667 10.3125H11.9167V8.25Z" fill="#CCCCCC"/>
<path d="M0 2.75C0 1.23122 1.64162 0 3.66667 0H18.3333C20.3584 0 22 1.23122 22 2.75V19.25C22 20.7688 20.3584 22 18.3333 22H3.66667C1.64162 22 0 20.7688 0 19.25V2.75ZM18.3333 1.375H3.66667C2.65414 1.375 1.83333 1.99061 1.83333 2.75V19.25C1.83333 20.0094 2.65415 20.625 3.66667 20.625H18.3333C19.3459 20.625 20.1667 20.0094 20.1667 19.25V2.75C20.1667 1.99061 19.3459 1.375 18.3333 1.375Z" fill="#CCCCCC"/>
</svg>
