<svg width="16" height="16" viewBox="0 0 16 16" fill="none" xmlns="http://www.w3.org/2000/svg">
<path d="M0.0408936 3.5C0.0408936 2.67157 0.699657 2 1.51228 2H14.2643C15.077 2 15.7357 2.67157 15.7357 3.5V12.5C15.7357 13.3284 15.077 14 14.2643 14H1.51228C0.699656 14 0.0408936 13.3284 0.0408936 12.5V3.5ZM1.51228 3C1.24141 3 1.02182 3.22386 1.02182 3.5V12.5C1.02182 12.7761 1.24141 13 1.51228 13H14.2643C14.5352 13 14.7548 12.7761 14.7548 12.5V3.5C14.7548 3.22386 14.5352 3 14.2643 3H1.51228Z" fill="white"/>
<path d="M7.88831 8.5C7.88831 8.22386 8.10789 8 8.37877 8H13.2834C13.5543 8 13.7739 8.22386 13.7739 8.5V11.5C13.7739 11.7761 13.5543 12 13.2834 12H8.37877C8.10789 12 7.88831 11.7761 7.88831 11.5V8.5Z" fill="white"/>
</svg>
