<svg width="16" height="16" viewBox="0 0 16 16" fill="none" xmlns="http://www.w3.org/2000/svg">
<path d="M0.0408783 3.5C0.0408783 2.67157 0.699642 2 1.51227 2H14.2643C15.0769 2 15.7357 2.67157 15.7357 3.5V12.5C15.7357 13.3284 15.0769 14 14.2643 14H1.51227C0.699641 14 0.0408783 13.3284 0.0408783 12.5V3.5ZM1.51227 3C1.24139 3 1.0218 3.22386 1.0218 3.5V12.5C1.0218 12.7761 1.24139 13 1.51227 13H14.2643C14.5352 13 14.7548 12.7761 14.7548 12.5V3.5C14.7548 3.22386 14.5352 3 14.2643 3H1.51227Z" fill="white"/>
<path d="M7.88829 8.5C7.88829 8.22386 8.10788 8 8.37875 8H13.2834C13.5543 8 13.7738 8.22386 13.7738 8.5V11.5C13.7738 11.7761 13.5543 12 13.2834 12H8.37875C8.10788 12 7.88829 11.7761 7.88829 11.5V8.5Z" fill="white"/>
</svg>
