<svg width="16" height="16" viewBox="0 0 16 16" fill="none" xmlns="http://www.w3.org/2000/svg">
<path d="M0.0407715 3.5C0.0407715 2.67157 0.699535 2 1.51216 2H14.2642C15.0768 2 15.7356 2.67157 15.7356 3.5V12.5C15.7356 13.3284 15.0768 14 14.2642 14H1.51216C0.699534 14 0.0407715 13.3284 0.0407715 12.5V3.5ZM1.51216 3C1.24129 3 1.0217 3.22386 1.0217 3.5V12.5C1.0217 12.7761 1.24129 13 1.51216 13H14.2642C14.5351 13 14.7547 12.7761 14.7547 12.5V3.5C14.7547 3.22386 14.5351 3 14.2642 3H1.51216Z" fill="white"/>
<path d="M7.88818 8.5C7.88818 8.22386 8.10777 8 8.37865 8H13.2833C13.5542 8 13.7737 8.22386 13.7737 8.5V11.5C13.7737 11.7761 13.5542 12 13.2833 12H8.37865C8.10777 12 7.88818 11.7761 7.88818 11.5V8.5Z" fill="white"/>
</svg>
