<svg width="23" height="23" viewBox="0 0 23 23" fill="none" xmlns="http://www.w3.org/2000/svg">
<path d="M22.7683 11.5C22.7683 17.8513 17.7178 23 11.4877 23C5.25755 23 0.207031 17.8513 0.207031 11.5C0.207031 5.14873 5.25755 0 11.4877 0C17.7178 0 22.7683 5.14873 22.7683 11.5ZM9.78236 7.32138C9.56745 7.16489 9.28478 7.14397 9.04995 7.26716C8.81512 7.39036 8.66752 7.63702 8.66752 7.90625V15.0938C8.66752 15.363 8.81512 15.6096 9.04995 15.7328C9.28478 15.856 9.56745 15.8351 9.78236 15.6786L14.7176 12.0849C14.9029 11.95 15.0129 11.7321 15.0129 11.5C15.0129 11.2679 14.9029 11.05 14.7176 10.9151L9.78236 7.32138Z" fill="#FDFDFD"/>
</svg>
