<svg width="23" height="23" viewBox="0 0 23 23" fill="none" xmlns="http://www.w3.org/2000/svg">
<path d="M22.7684 11.5C22.7684 17.8513 17.7179 23 11.4877 23C5.25761 23 0.207092 17.8513 0.207092 11.5C0.207092 5.14873 5.25761 0 11.4877 0C17.7179 0 22.7684 5.14873 22.7684 11.5ZM9.78242 7.32138C9.56751 7.16489 9.28484 7.14397 9.05001 7.26716C8.81518 7.39036 8.66758 7.63702 8.66758 7.90625V15.0938C8.66758 15.363 8.81518 15.6096 9.05001 15.7328C9.28484 15.856 9.56751 15.8351 9.78242 15.6786L14.7177 12.0849C14.903 11.95 15.013 11.7321 15.013 11.5C15.013 11.2679 14.903 11.05 14.7177 10.9151L9.78242 7.32138Z" fill="#FDFDFD"/>
</svg>
