<svg width="23" height="23" viewBox="0 0 23 23" fill="none" xmlns="http://www.w3.org/2000/svg">
<path d="M15.6581 7.85767V5.74995H7.19763C4.08256 5.74995 1.5573 8.32431 1.5573 11.5C1.5573 12.4192 1.76839 13.2862 2.14321 14.0551C2.3165 14.4106 2.1743 14.8419 1.8256 15.0186C1.47691 15.1953 1.05375 15.0503 0.880463 14.6948C0.410908 13.7316 0.147217 12.6461 0.147217 11.5C0.147217 7.5304 3.30379 4.31245 7.19763 4.31245H15.6581V2.20473C15.6581 1.90004 16.0067 1.73359 16.2363 1.92865L19.5634 4.75512C19.7325 4.89879 19.7325 5.1636 19.5634 5.30728L16.2363 8.13375C16.0067 8.32881 15.6581 8.16236 15.6581 7.85767Z" fill="white"/>
<path d="M21.0301 7.9813C21.3788 7.80464 21.802 7.94961 21.9753 8.30508C22.4448 9.26832 22.7085 10.3538 22.7085 11.5C22.7085 15.4695 19.5519 18.6875 15.6581 18.6875H7.19763V20.7952C7.19763 21.0999 6.84903 21.2663 6.61943 21.0712L3.29236 18.2448C3.12323 18.1011 3.12323 17.8363 3.29236 17.6926L6.61943 14.8661C6.84903 14.6711 7.19763 14.8375 7.19763 15.1422V17.25H15.6581C18.7732 17.25 21.2984 14.6756 21.2984 11.5C21.2984 10.5807 21.0874 9.71372 20.7125 8.94482C20.5392 8.58934 20.6814 8.15796 21.0301 7.9813Z" fill="white"/>
</svg>
