<svg width="23" height="23" viewBox="0 0 23 23" fill="none" xmlns="http://www.w3.org/2000/svg">
<path d="M15.6581 7.85767V5.74995H7.19756C4.0825 5.74995 1.55724 8.32431 1.55724 11.5C1.55724 12.4192 1.76833 13.2862 2.14315 14.0551C2.31644 14.4106 2.17424 14.8419 1.82554 15.0186C1.47684 15.1953 1.05369 15.0503 0.880402 14.6948C0.410847 13.7316 0.147156 12.6461 0.147156 11.5C0.147156 7.5304 3.30373 4.31245 7.19756 4.31245H15.6581V2.20473C15.6581 1.90004 16.0066 1.73359 16.2363 1.92865L19.5633 4.75512C19.7324 4.89879 19.7324 5.1636 19.5633 5.30728L16.2363 8.13375C16.0066 8.32881 15.6581 8.16236 15.6581 7.85767Z" fill="white"/>
<path d="M21.0301 7.9813C21.3788 7.80464 21.8019 7.94961 21.9752 8.30508C22.4448 9.26832 22.7085 10.3538 22.7085 11.5C22.7085 15.4695 19.5519 18.6875 15.6581 18.6875H7.19756V20.7952C7.19756 21.0999 6.84897 21.2663 6.61937 21.0712L3.2923 18.2448C3.12317 18.1011 3.12317 17.8363 3.2923 17.6926L6.61937 14.8661C6.84897 14.6711 7.19756 14.8375 7.19756 15.1422V17.25H15.6581C18.7731 17.25 21.2984 14.6756 21.2984 11.5C21.2984 10.5807 21.0873 9.71372 20.7125 8.94482C20.5392 8.58934 20.6814 8.15796 21.0301 7.9813Z" fill="white"/>
</svg>
