<svg width="18" height="18" viewBox="0 0 18 18" fill="none" xmlns="http://www.w3.org/2000/svg">
<path d="M11 16H16V2H2V16H9V11H7V9H9V7.346C9 6.009 9.14 5.524 9.4 5.035C9.6561 4.55119 10.052 4.15569 10.536 3.9C10.918 3.695 11.393 3.572 12.223 3.519C12.552 3.498 12.978 3.524 13.501 3.599V5.499H13C12.083 5.499 11.704 5.542 11.478 5.663C11.3431 5.73236 11.2334 5.84215 11.164 5.977C11.044 6.203 11 6.427 11 7.345V9H13.5L13 11H11V16ZM1 0H17C17.2652 0 17.5196 0.10536 17.7071 0.29289C17.8946 0.48043 18 0.73478 18 1V17C18 17.2652 17.8946 17.5196 17.7071 17.7071C17.5196 17.8946 17.2652 18 17 18H1C0.73478 18 0.48043 17.8946 0.29289 17.7071C0.10536 17.5196 0 17.2652 0 17V1C0 0.73478 0.10536 0.48043 0.29289 0.29289C0.48043 0.10536 0.73478 0 1 0Z" fill="white"/>
</svg>
