<svg width="24" height="23" viewBox="0 0 24 23" fill="none" xmlns="http://www.w3.org/2000/svg">
<path d="M13.2467 5.75001C13.2467 5.47372 13.0913 5.22188 12.847 5.1022C12.6028 4.98251 12.3128 5.01616 12.1012 5.18876L8.76909 7.90626H5.4912C5.10182 7.90626 4.78616 8.22805 4.78616 8.62501V14.375C4.78616 14.772 5.10182 15.0938 5.4912 15.0938H8.76909L12.1012 17.8113C12.3128 17.9839 12.6028 18.0175 12.847 17.8978C13.0913 17.7781 13.2467 17.5263 13.2467 17.25V5.75001ZM9.45684 9.18626L11.8366 7.24546V15.7546L9.45684 13.8138C9.33183 13.7118 9.1765 13.6563 9.01641 13.6563H6.19625V9.34376H9.01641C9.1765 9.34376 9.33183 9.28821 9.45684 9.18626Z" fill="white"/>
<path d="M17.5123 11.5C17.5123 13.2863 16.8021 14.9034 15.6538 16.0741L14.6567 15.0576C15.5498 14.1471 16.1022 12.8893 16.1022 11.5C16.1022 10.1106 15.5498 8.85281 14.6567 7.94233L15.6538 6.92587C16.8021 8.09648 17.5123 9.71367 17.5123 11.5Z" fill="white"/>
</svg>
