<svg width="24" height="23" viewBox="0 0 24 23" fill="none" xmlns="http://www.w3.org/2000/svg">
<path d="M13.2466 5.75001C13.2466 5.47372 13.0913 5.22188 12.847 5.1022C12.6027 4.98251 12.3128 5.01616 12.1011 5.18876L8.76906 7.90626H5.49117C5.10179 7.90626 4.78613 8.22805 4.78613 8.62501V14.375C4.78613 14.772 5.10179 15.0938 5.49117 15.0938H8.76906L12.1011 17.8113C12.3128 17.9839 12.6027 18.0175 12.847 17.8978C13.0913 17.7781 13.2466 17.5263 13.2466 17.25V5.75001ZM9.45681 9.18626L11.8365 7.24546V15.7546L9.45681 13.8138C9.3318 13.7118 9.17647 13.6563 9.01638 13.6563H6.19621V9.34376H9.01638C9.17647 9.34376 9.3318 9.28821 9.45681 9.18626Z" fill="white"/>
<path d="M17.5123 11.5C17.5123 13.2863 16.8021 14.9034 15.6538 16.0741L14.6567 15.0576C15.5498 14.1471 16.1022 12.8893 16.1022 11.5C16.1022 10.1106 15.5498 8.85281 14.6567 7.94233L15.6538 6.92587C16.8021 8.09648 17.5123 9.71367 17.5123 11.5Z" fill="white"/>
</svg>
