<svg width="32" height="32" viewBox="0 0 32 32" fill="none" xmlns="http://www.w3.org/2000/svg">
<g clip-path="url(#clip0_139_73)">
<path d="M7.09188 19.338L5.978 23.4962L1.90681 23.5823C0.690125 21.3257 0 18.7437 0 16C0 13.3468 0.64525 10.8448 1.789 8.64172H1.78988L5.41437 9.30622L7.00212 12.909C6.66981 13.8778 6.48869 14.9178 6.48869 16C6.48881 17.1745 6.70156 18.2998 7.09188 19.338Z" fill="#FBBB00"/>
<path d="M31.7205 13.011C31.9042 13.9789 32.0001 14.9784 32.0001 16C32.0001 17.1455 31.8796 18.2629 31.6502 19.3407C30.8713 23.0084 28.8361 26.211 26.0168 28.4774L26.0159 28.4765L21.4507 28.2436L20.8046 24.2101C22.6753 23.113 24.1373 21.396 24.9074 19.3407H16.3518V13.011H25.0322H31.7205Z" fill="#518EF8"/>
<path d="M26.016 28.4764L26.0169 28.4773C23.2749 30.6812 19.7918 31.9999 16.0002 31.9999C9.90698 31.9999 4.60942 28.5942 1.90698 23.5823L7.09204 19.338C8.44323 22.9441 11.9219 25.5111 16.0002 25.5111C17.7531 25.5111 19.3954 25.0373 20.8045 24.21L26.016 28.4764Z" fill="#28B446"/>
<path d="M26.2128 3.6835L21.0295 7.927C19.5711 7.01538 17.8471 6.48875 16.0001 6.48875C11.8295 6.48875 8.28575 9.17356 7.00225 12.909L1.78994 8.64175H1.78906C4.45194 3.50769 9.81631 0 16.0001 0C19.8823 0 23.4418 1.38287 26.2128 3.6835Z" fill="#F14336"/>
</g>
<defs>
<clipPath id="clip0_139_73">
<rect width="32" height="32" fill="white"/>
</clipPath>
</defs>
</svg>
