<svg width="19" height="19" viewBox="0 0 19 19" fill="none" xmlns="http://www.w3.org/2000/svg">
<path d="M11.6111 16.8889H16.8889V2.11111H2.11111V16.8889H9.5V11.6111H7.38889V9.5H9.5V7.75411C9.5 6.34283 9.64778 5.83089 9.92222 5.31472C10.1925 4.80403 10.6104 4.38656 11.1213 4.11667C11.5246 3.90028 12.0259 3.77044 12.9021 3.7145C13.2493 3.69233 13.699 3.71978 14.2511 3.79894V5.8045H13.7222C12.7543 5.8045 12.3542 5.84989 12.1157 5.97761C11.9733 6.05082 11.8575 6.16671 11.7842 6.30906C11.6576 6.54761 11.6111 6.78406 11.6111 7.75306V9.5H14.25L13.7222 11.6111H11.6111V16.8889ZM1.05556 0H17.9444C18.2244 0 18.4929 0.111213 18.6908 0.309162C18.8887 0.507121 19 0.775601 19 1.05556V17.9444C19 18.2244 18.8887 18.4929 18.6908 18.6908C18.4929 18.8887 18.2244 19 17.9444 19H1.05556C0.775601 19 0.507121 18.8887 0.309162 18.6908C0.111213 18.4929 0 18.2244 0 17.9444V1.05556C0 0.775601 0.111213 0.507121 0.309162 0.309162C0.507121 0.111213 0.775601 0 1.05556 0Z" fill="white"/>
</svg>
