<svg width="21" height="19" viewBox="0 0 21 19" fill="none" xmlns="http://www.w3.org/2000/svg">
<path d="M12.863 16.8889H18.313V2.11111H3.05294V16.8889H10.683V11.6111H8.50297V9.5H10.683V7.75411C10.683 6.34283 10.8356 5.83089 11.119 5.31472C11.3981 4.80403 11.8297 4.38656 12.3572 4.11667C12.7736 3.90028 13.2914 3.77044 14.1961 3.7145C14.5547 3.69233 15.019 3.71978 15.5891 3.79894V5.8045H15.043C14.0435 5.8045 13.6304 5.84989 13.384 5.97761C13.237 6.05082 13.1174 6.16671 13.0418 6.30906C12.911 6.54761 12.863 6.78406 12.863 7.75306V9.5H15.588L15.043 11.6111H12.863V16.8889ZM1.96293 0H19.403C19.6921 0 19.9694 0.111213 20.1738 0.309162C20.3782 0.507121 20.493 0.775601 20.493 1.05556V17.9444C20.493 18.2244 20.3782 18.4929 20.1738 18.6908C19.9694 18.8887 19.6921 19 19.403 19H1.96293C1.67384 19 1.3966 18.8887 1.19218 18.6908C0.987768 18.4929 0.872925 18.2244 0.872925 17.9444V1.05556C0.872925 0.775601 0.987768 0.507121 1.19218 0.309162C1.3966 0.111213 1.67384 0 1.96293 0Z" fill="white"/>
</svg>
